<?xml version="1.0" ?><svg id="Warstwa_1" style="enable-background:new 0 0 500 500;" version="1.1" viewBox="0 0 500 500" xml:space="preserve" xmlns="http://www.w3.org/2000/svg" xmlns:xlink="http://www.w3.org/1999/xlink"><style type="text/css">
	.st0{fill:#3B97D2;}
	.st1{fill:#4EB96F;}
	.st2{fill:#EBECEC;}
	.st3{fill:#E64C3B;}
	.st4{fill:#EFC319;}
</style><g id="XMLID_3_"><path class="st0" d="M500,250c0,138-112,250-250,250c-17,0-33.8-1.7-49.8-5.1l49.8-49.9l25.5-25.5V275.5h144.1   l0.2-0.2l25.3-25.3l49.9-49.9C498.3,216.2,500,232.9,500,250z" id="XMLID_73_"/><path class="st1" d="M54.9,250L5,299.9c-3.3-16.1-5-32.8-5-49.9c0-17.1,1.7-33.8,5-49.9L54.9,250z" id="XMLID_158_"/><polygon class="st1" id="XMLID_159_" points="80.2,275.2 80.4,275.4 80.2,275.4  "/><polygon class="st1" id="XMLID_160_" points="80.4,224.5 80.2,224.8 80.2,224.5  "/><path class="st1" d="M224.5,398.5l-78.7,78.7c-54.3-24.9-98.1-68.7-123-123.1l78.7-78.7h123.1V398.5z" id="XMLID_161_"/><polygon class="st1" id="XMLID_162_" points="224.5,419.6 224.7,419.8 224.5,419.8  "/><polygon class="st1" id="XMLID_163_" points="419.6,224.5 419.8,224.5 419.8,224.7  "/><path class="st1" d="M250,54.9L200.1,5C216.3,1.7,233,0,250,0s33.8,1.7,49.9,5L250,54.9z" id="XMLID_212_"/><path class="st1" d="M362.5,26.7c-2.7-1.4-5.5-2.7-8.3-3.9l-54.3,54.3c37.8,28.9,44.9,90.9,7.1,128.7l-18.7,18.7   h110.4l78.7-78.7C453.6,94.3,413,52.2,362.5,26.7z M275.5,80.4v-0.2h-0.2L275.5,80.4z M224.5,80.4l0.2-0.2h-0.2V80.4z M200.2,77.1   l-54.3-54.3c-2.8,1.2-5.6,2.6-8.3,3.9C87,52.2,46.4,94.3,22.7,145.8l78.7,78.7h110.4l-18.7-18.7C155.3,168,162.3,106,200.2,77.1z" id="XMLID_196_"/><polygon class="st2" id="XMLID_82_" points="0.3,287.5 0,287.5 0,287.2  "/><polygon class="st2" id="XMLID_80_" points="0.3,287.5 0,287.5 0,287.2  "/><polygon class="st2" id="XMLID_78_" points="0.3,287.5 0,287.5 0,287.2  "/><polygon class="st2" id="XMLID_74_" points="0.3,287.5 0,287.5 0,287.2  "/><polygon class="st2" id="XMLID_75_" points="0,212.5 0.3,212.5 0,212.8  "/><polygon class="st2" id="XMLID_72_" points="0.3,287.5 0,287.5 0,287.2  "/><polygon class="st2" id="XMLID_70_" points="0.3,287.5 0,287.5 0,287.2  "/><polygon class="st2" id="XMLID_68_" points="0.3,212.5 0,212.8 0,212.5  "/><polygon class="st2" id="XMLID_66_" points="0.3,212.5 0,212.8 0,212.5  "/><polygon class="st2" id="XMLID_64_" points="0.3,212.5 0,212.8 0,212.5  "/><polygon class="st2" id="XMLID_62_" points="0.3,212.5 0,212.8 0,212.5  "/><path class="st2" d="M186,491.7c4.6,1.3,9.3,2.4,14.1,3.3l0.1-0.1C195.4,494,190.7,492.9,186,491.7z M353,22.2   c0.4,0.2,0.8,0.4,1.2,0.6l0.1-0.1C353.8,22.6,353.4,22.4,353,22.2z M145.8,22.7L145.8,22.7c0.5-0.2,0.8-0.4,1.2-0.5   C146.6,22.4,146.2,22.6,145.8,22.7z" id="XMLID_6_"/><path class="st2" d="M354.2,22.8l-54.3,54.3c-10-7.7-22.1-13-36.2-15c-4.5-0.5-9.1-0.8-13.6-0.8s-9.1,0.3-13.6,0.8   c-14,2-26.2,7.3-36.2,15l-54.3-54.3c0.4-0.2,0.8-0.4,1.2-0.6c0.4-0.2,0.8-0.4,1.3-0.5c3.8-1.7,7.7-3.4,11.6-4.9   c1.8-0.8,3.8-1.4,5.6-2.1c2.2-0.8,4.3-1.5,6.4-2.3c0.4-0.1,0.8-0.2,1.2-0.4c2-0.7,4-1.3,6-1.8c2.3-0.7,4.6-1.4,6.9-2   c2.3-0.6,4.5-1.1,6.7-1.7c0.4-0.1,0.7-0.2,1.1-0.2c2-0.5,3.9-0.9,5.9-1.3c0.1,0,0.2,0,0.4-0.1L250,54.9L299.9,5   c0.2,0.1,0.3,0.1,0.4,0.1c2,0.4,3.9,0.8,5.9,1.3c0.4,0.1,0.7,0.1,1.1,0.2c2.3,0.5,4.5,1.1,6.7,1.7c2.3,0.6,4.6,1.3,6.9,2   c2,0.5,4,1.2,6,1.8c0.4,0.1,0.8,0.2,1.2,0.4c2.1,0.8,4.2,1.4,6.4,2.3c1.8,0.7,3.8,1.3,5.6,2.1c3.9,1.5,7.9,3.2,11.6,4.9   c0.5,0.2,0.9,0.3,1.3,0.5C353.4,22.4,353.8,22.6,354.2,22.8z" id="XMLID_34_"/><path class="st2" d="M477.3,145.8l-78.7,78.7H288.2L250,262.7l-38.2-38.2H101.4l-78.7-78.7   C14.8,162.9,8.9,181.1,5,200.1L54.9,250L5,299.9c3.9,19,9.8,37.1,17.7,54.3l78.7-78.7h123.1v123l-78.7,78.7c2.2,1,4.3,1.9,6.5,2.8   c1.7,0.8,3.5,1.5,5.3,2.2c1.8,0.8,3.7,1.5,5.6,2.2c2.6,1,5.3,1.9,7.9,2.8c2.4,0.8,4.8,1.5,7.1,2.2c2.6,0.8,5.1,1.5,7.7,2.2   c4.6,1.2,9.4,2.3,14.2,3.3l49.8-49.9l25.5-25.5V275.5h144.1l0.2-0.2l25.3-25.3l49.9-49.9C491.1,181.1,485.2,162.9,477.3,145.8z    M80.2,275.4v-0.2l0.2,0.2H80.2z M80.2,224.8v-0.2h0.2L80.2,224.8z M224.5,419.8v-0.2l0.2,0.2H224.5z M419.8,224.7l-0.2-0.2h0.2   V224.7z" id="XMLID_145_"/><polygon class="st2" id="XMLID_60_" points="0,287.2 0.3,287.5 0,287.5  "/><polygon class="st2" id="XMLID_58_" points="0.3,212.5 0,212.8 0,212.5  "/><polygon class="st2" id="XMLID_56_" points="0.3,212.5 0,212.8 0,212.5  "/><g id="XMLID_9_"><path class="st3" d="M275.2,80.2l0.2,0.2v-0.2H275.2z M224.5,80.4l0.2-0.2h-0.2V80.4z" id="XMLID_35_"/><path class="st3" d="M299.8,77.1c-10-7.7-22.1-13-36.2-15c-4.5-0.5-9.1-0.8-13.6-0.8s-9.1,0.3-13.6,0.8    c-14,2-26.2,7.3-36.2,15c-37.8,28.9-44.9,90.9-7.1,128.7l56.9,56.9l56.9-56.9C344.7,168,337.7,106,299.8,77.1z M275.5,80.2v0.2    l-0.2-0.2H275.5z M224.5,80.2h0.2l-0.2,0.2V80.2z M292.6,136.1c-0.1,0.8-0.1,1.5-0.2,2.3c-0.3,2.6-0.8,5.2-1.6,7.7    c-0.2,0.8-0.5,1.6-0.8,2.4c-0.3,0.8-0.6,1.5-1,2.3c-0.3,0.8-0.7,1.5-1.1,2.3c-0.4,0.9-1,1.8-1.5,2.7c-0.2,0.4-0.5,0.9-0.8,1.3    c-1.5,2.3-3.3,4.5-5.2,6.5c-0.5,0.6-1.1,1.1-1.7,1.6c-0.2,0.3-0.5,0.6-0.8,0.8c-0.7,0.6-1.4,1.1-2.1,1.7c-0.1,0.1-0.2,0.1-0.3,0.2    c-1.8,1.3-3.8,2.6-5.8,3.6c-0.5,0.3-1.1,0.6-1.7,0.9c-3.7,1.7-7.7,2.9-11.9,3.5c-0.8,0.2-1.6,0.3-2.5,0.3    c-1.2,0.1-2.4,0.2-3.6,0.2s-2.4-0.1-3.6-0.2c-0.9,0-1.7-0.1-2.5-0.3c-4.2-0.6-8.2-1.7-11.9-3.5c-0.5-0.3-1.1-0.6-1.7-0.9    c-2.1-1-4-2.3-5.8-3.6c-0.1-0.1-0.2-0.2-0.3-0.2c-0.7-0.6-1.4-1.1-2.1-1.7c-0.3-0.2-0.6-0.5-0.8-0.8c-0.6-0.5-1.1-1-1.7-1.6    c-2-2-3.8-4.2-5.2-6.5c-0.3-0.4-0.6-0.9-0.8-1.3c-0.5-0.9-1.1-1.8-1.5-2.7c-0.4-0.7-0.8-1.5-1.1-2.3c-0.4-0.7-0.7-1.5-1-2.3    c-0.3-0.8-0.5-1.5-0.8-2.4c-0.8-2.4-1.3-5.1-1.6-7.7c-0.1-0.8-0.2-1.5-0.2-2.3c-0.1-0.8-0.1-1.7-0.1-2.6c0-1.3,0-2.5,0.1-3.7    c0.1-0.4,0.1-0.8,0.2-1.3c0.3-2.5,0.7-4.8,1.4-7.1c0.2-0.8,0.5-1.5,0.8-2.3c0.5-1.5,1.1-3,1.8-4.3c0.4-0.7,0.7-1.4,1.1-2.1    c0.3-0.5,0.6-1.1,1-1.6c0.2-0.5,0.5-0.9,0.8-1.4c2.4-3.6,5.3-6.8,8.7-9.5c3.7-2.9,7.8-5.2,12.3-6.8c0.8-0.3,1.7-0.6,2.6-0.8    c0.5-0.2,1.1-0.3,1.7-0.5c0.9-0.2,1.8-0.4,2.8-0.5c1.3-0.2,2.6-0.4,3.9-0.5c1.2-0.1,2.3-0.2,3.5-0.2s2.3,0.1,3.5,0.2    c1.3,0.1,2.6,0.2,3.9,0.5c1,0.1,1.8,0.4,2.8,0.5c0.5,0.2,1.1,0.3,1.7,0.5c0.9,0.2,1.7,0.5,2.6,0.8c4.5,1.6,8.6,3.9,12.3,6.8    c3.4,2.7,6.3,5.9,8.7,9.5c0.3,0.4,0.6,0.9,0.8,1.4c0.4,0.5,0.7,1.1,1,1.6c0.4,0.7,0.7,1.4,1.1,2.1c0.7,1.4,1.4,2.8,1.8,4.3    c0.3,0.7,0.6,1.5,0.8,2.3c0.7,2.3,1.1,4.6,1.4,7.1c0.1,0.4,0.1,0.8,0.2,1.3c0.1,1.2,0.1,2.5,0.1,3.7    C292.7,134.4,292.7,135.2,292.6,136.1z" id="XMLID_122_"/><path class="st4" d="M292.7,133.5c0,0.9,0,1.7-0.1,2.6c-0.1,0.8-0.1,1.5-0.2,2.3c-0.3,2.6-0.8,5.2-1.6,7.7    c-0.2,0.8-0.5,1.6-0.8,2.4c-0.3,0.8-0.6,1.5-1,2.3c-0.3,0.8-0.7,1.5-1.1,2.3c-0.4,0.9-1,1.8-1.5,2.7c-0.2,0.4-0.5,0.9-0.8,1.3    c-1.5,2.3-3.3,4.5-5.2,6.5c-0.6,0.6-1.1,1.1-1.7,1.6c-0.2,0.3-0.5,0.6-0.8,0.8c-0.7,0.6-1.4,1.1-2.1,1.7c-0.1,0.1-0.2,0.1-0.3,0.2    c-1.8,1.3-3.8,2.6-5.8,3.6c-0.5,0.3-1.1,0.6-1.7,0.9c-3.7,1.7-7.7,2.9-11.9,3.5c-0.8,0.2-1.6,0.3-2.5,0.3    c-1.2,0.1-2.4,0.2-3.6,0.2s-2.4-0.1-3.6-0.2c-0.9,0-1.7-0.1-2.5-0.3c-4.2-0.6-8.2-1.7-11.9-3.5c-0.5-0.3-1.1-0.6-1.7-0.9    c-2.1-1-4-2.3-5.8-3.6c-0.1-0.1-0.2-0.2-0.3-0.2c-0.7-0.6-1.4-1.1-2.1-1.7c-0.3-0.2-0.6-0.5-0.8-0.8c-0.6-0.5-1.1-1-1.7-1.6    c-2-2-3.8-4.2-5.2-6.5c-0.3-0.4-0.6-0.9-0.8-1.3c-0.5-0.9-1.1-1.8-1.5-2.7c-0.4-0.7-0.8-1.5-1.1-2.3c-0.4-0.7-0.7-1.5-1-2.3    c-0.3-0.8-0.5-1.5-0.8-2.4c-0.8-2.4-1.3-5.1-1.6-7.7c-0.1-0.8-0.2-1.5-0.2-2.3c-0.1-0.8-0.1-1.7-0.1-2.6c0-1.3,0-2.5,0.1-3.7    c0.1-0.4,0.1-0.8,0.2-1.3c0.3-2.5,0.7-4.8,1.4-7.1c0.2-0.8,0.5-1.5,0.8-2.3c0.5-1.5,1.1-3,1.8-4.3c0.4-0.7,0.7-1.4,1.1-2.1    c0.3-0.5,0.6-1.1,1-1.6c0.2-0.5,0.5-0.9,0.8-1.4c2.4-3.6,5.3-6.8,8.7-9.5c3.7-2.9,7.8-5.2,12.3-6.8c0.8-0.3,1.7-0.6,2.6-0.8    c0.5-0.2,1.1-0.3,1.7-0.5c0.9-0.2,1.8-0.4,2.8-0.5c1.3-0.2,2.6-0.4,3.9-0.5c1.2-0.1,2.3-0.2,3.5-0.2s2.3,0.1,3.5,0.2    c1.3,0.1,2.6,0.2,3.9,0.5c1,0.1,1.8,0.4,2.8,0.5c0.5,0.2,1.1,0.3,1.7,0.5c0.9,0.2,1.7,0.5,2.6,0.8c4.5,1.6,8.6,3.9,12.3,6.8    c3.4,2.7,6.3,5.9,8.7,9.5c0.3,0.4,0.6,0.9,0.8,1.4c0.4,0.5,0.7,1.1,1,1.6c0.4,0.7,0.7,1.4,1.1,2.1c0.7,1.4,1.4,2.8,1.8,4.3    c0.3,0.7,0.6,1.5,0.8,2.3c0.7,2.3,1.1,4.6,1.4,7.1c0.1,0.4,0.1,0.8,0.2,1.3C292.7,131,292.7,132.3,292.7,133.5z" id="XMLID_30_"/></g></g></svg>